<svg width="59" height="58" viewBox="0 0 59 58" fill="none" xmlns="http://www.w3.org/2000/svg">
<path d="M58.4492 28.5312C58.4492 43.9973 45.4923 56.5625 29.4746 56.5625C13.4569 56.5625 0.5 43.9973 0.5 28.5312C0.5 13.0652 13.4569 0.5 29.4746 0.5C45.4923 0.5 58.4492 13.0652 58.4492 28.5312Z" fill="#019EDD" stroke="white"/>
<path d="M36.4869 20.8607C36.4869 24.9077 33.0708 28.2213 28.8157 28.2213C24.5606 28.2213 21.1445 24.9077 21.1445 20.8607C21.1445 16.8136 24.5606 13.5 28.8157 13.5C33.0708 13.5 36.4869 16.8136 36.4869 20.8607Z" fill="#019EDD" stroke="white"/>
<path d="M10.5144 44.4492C10.7078 41.0575 12.8333 37.1622 16.0651 34.0426C19.449 30.7762 23.956 28.4492 28.5003 28.4492C33.0445 28.4492 37.5514 30.7762 40.9352 34.0426C44.1668 37.1621 46.2922 41.0575 46.4856 44.4492H46.3543H46.1412H45.9292H45.7182H45.5082H45.2993H45.0914H44.8846H44.6788H44.474H44.2702H44.0675H43.8658H43.6651H43.4654H43.2668H43.0691H42.8725H42.6768H42.4822H42.2886H42.0959H41.9043H41.7136H41.5239H41.3352H41.1475H40.9608H40.775H40.5903H40.4064H40.2236H40.0417H39.8608H39.6808H39.5018H39.3237H39.1466H38.9705H38.7952H38.621H38.4476H38.2752H38.1037H37.9332H37.7635H37.5948H37.427H37.2602H37.0942H36.9292H36.765H36.6018H36.4395H36.278H36.1175H35.9579H35.7991H35.6413H35.4843H35.3282H35.173H35.0186H34.8652H34.7126H34.5608H34.41H34.2599H34.1108H33.9625H33.8151H33.6685H33.5227H33.3778H33.2338H33.0905H32.9482H32.8066H32.6659H32.526H32.3869H32.2486H32.1112H31.9746H31.8388H31.7038H31.5696H31.4362H31.3036H31.1718H31.0408H30.9106H30.7811H30.6525H30.5246H30.3976H30.2713H30.1457H30.021H29.897H29.7738H29.6513H29.5296H29.4087H29.2885H29.169H29.0503H28.9324H28.8152H28.6987H28.583H28.468H28.3537H28.2402H28.1273H28.0152H27.9039H27.7932H27.6832H27.574H27.4655H27.3576H27.2505H27.1441H27.0383H26.9333H26.8289H26.7252H26.6222H26.5199H26.4183H26.3173H26.2171H26.1174H26.0185H25.9202H25.8226H25.7256H25.6293H25.5336H25.4386H25.3442H25.2505H25.1574H25.065H24.9731H24.882H24.7914H24.7015H24.6121H24.5234H24.4354H24.3479H24.261H24.1748H24.0892H24.0041H23.9197H23.8358H23.7526H23.6699H23.5878H23.5063H23.4254H23.3451H23.2653H23.1861H23.1075H23.0295H22.952H22.875H22.7987H22.7229H22.6476H22.5729H22.4987H22.4251H22.352H22.2795H22.2075H22.136H22.065H21.9946H21.9247H21.8553H21.7865H21.7181H21.6503H21.5829H21.5161H21.4498H21.3839H21.3186H21.2538H21.1894H21.1256H21.0622H20.9993H20.9369H20.875H20.8135H20.7525H20.692H20.6319H20.5723H20.5132H20.4545H20.3963H20.3385H20.2812H20.2243H20.1678H20.1118H20.0562H20.0011H19.9464H19.8921H19.8382H19.7848H19.7318H19.6792H19.627H19.5752H19.5238H19.4728H19.4222H19.3721H19.3223H19.2729H19.2239H19.1752H19.127H19.0791H19.0317H18.9845H18.9378H18.8914H18.8454H18.7998H18.7545H18.7096H18.665H18.6208H18.5769H18.5334H18.4902H18.4474H18.4048H18.3627H18.3208H18.2793H18.2381H18.1972H18.1567H18.1164H18.0765H18.0369H17.9976H17.9586H17.9198H17.8814H17.8433H17.8055H17.768H17.7307H17.6938H17.6571H17.6207H17.5846H17.5487H17.5131H17.4778H17.4427H17.4079H17.3734H17.3391H17.3051H17.2713H17.2377H17.2044H17.1714H17.1386H17.106H17.0736H17.0415H17.0096H16.9779H16.9464H16.9152H16.8842H16.8533H16.8227H16.7923H16.7621H16.7321H16.7023H16.6727H16.6433H16.614H16.585H16.5561H16.5274H16.4989H16.4705H16.4423H16.4143H16.3865H16.3588H16.3313H16.3039H16.2767H16.2496H16.2227H16.1959H16.1692H16.1427H16.1164H16.0901H16.064H16.038H16.0122H15.9865H15.9608H15.9353H15.9099H15.8846H15.8595H15.8344H15.8094H15.7845H15.7597H15.735H15.7104H15.6859H15.6615H15.6371H15.6128H15.5886H15.5645H15.5404H15.5164H15.4924H15.4685H15.4447H15.4209H15.3972H15.3735H15.3499H15.3263H15.3027H15.2792H15.2557H15.2322H15.2088H15.1854H15.162H15.1386H15.1153H15.0919H15.0686H15.0453H15.022H14.9986H14.9753H14.952H14.9286H14.9053H14.8819H14.8585H14.8351H14.8117H14.7883H14.7648H14.7413H14.7177H14.6942H14.6705H14.6469H14.6232H14.5994H14.5756H14.5517H14.5278H14.5038H14.4798H14.4557H14.4315H14.4072H14.3829H14.3585H14.334H14.3094H14.2847H14.26H14.2351H14.2102H14.1852H14.16H14.1348H14.1094H14.084H14.0584H14.0327H14.0069H13.9809H13.9549H13.9287H13.9024H13.8759H13.8493H13.8226H13.7957H13.7687H13.7416H13.7142H13.6868H13.6591H13.6314H13.6034H13.5753H13.547H13.5186H13.4899H13.4611H13.4321H13.403H13.3736H13.3441H13.3143H13.2844H13.2543H13.2239H13.1934H13.1627H13.1317H13.1006H13.0692H13.0376H13.0058H12.9737H12.9415H12.909H12.8762H12.8433H12.8101H12.7766H12.7429H12.709H12.6748H12.6404H12.6057H12.5707H12.5355H12.5H12.4642H12.4282H12.3919H12.3553H12.3185H12.2814H12.2439H12.2062H12.1682H12.1299H12.0913H12.0525H12.0133H11.9738H11.9339H11.8938H11.8534H11.8126H11.7716H11.7302H11.6884H11.6464H11.604H11.5613H11.5182H11.4748H11.4311H11.387H11.3426H11.2978H11.2526H11.2071H11.1613H11.115H11.0685H11.0215H10.9742H10.9264H10.8783H10.8299H10.781H10.7318H10.6821H10.6321H10.5817H10.5308H10.5144Z" fill="#019EDD" stroke="white"/>
</svg>
