<svg width="40" height="39" viewBox="0 0 40 39" fill="none" xmlns="http://www.w3.org/2000/svg">
<rect y="0.230469" width="40" height="38.502" rx="19.251" fill="white"/>
<path d="M20.9825 26.2179C13.466 26.2179 9.17864 21.1594 9 12.7422H12.7651C12.8888 18.9202 15.6646 21.5371 17.8632 22.0767V12.7422H21.4085V18.0704C23.5796 17.8411 25.8607 15.413 26.6302 12.7422H30.1755C29.8855 14.1274 29.3075 15.4389 28.4776 16.5948C27.6477 17.7507 26.5837 18.726 25.3523 19.4598C26.7269 20.1303 27.941 21.0793 28.9145 22.2442C29.888 23.4092 30.5988 24.7635 31 26.2179H27.0974C26.7373 24.9546 26.0054 23.8238 24.9934 22.9672C23.9814 22.1105 22.7343 21.5661 21.4085 21.4022V26.2179H20.9825Z" fill="black"/>
</svg>
