<svg width="40" height="39" viewBox="0 0 40 39" fill="none" xmlns="http://www.w3.org/2000/svg">
<rect y="0.230469" width="40" height="38.502" rx="19.251" fill="white"/>
<path d="M27.9268 11.8423C25.9512 9.94732 23.3171 8.89453 20.5366 8.89453C14.7561 8.89453 10.0732 13.3864 10.0732 18.9311C10.0732 20.6858 10.5854 22.4404 11.4634 23.9143L10 29.1081L15.561 27.7044C17.0976 28.4764 18.7805 28.8975 20.5366 28.8975C26.3171 28.8975 31 24.4056 31 18.8609C30.9268 16.2641 29.9024 13.7374 27.9268 11.8423ZM25.5854 22.5106C25.3659 23.0721 24.3415 23.6336 23.8293 23.7038C23.3902 23.7739 22.8049 23.774 22.2195 23.6336C21.8537 23.4932 21.3415 23.3528 20.7561 23.0721C18.122 22.0193 16.439 19.4926 16.2927 19.2821C16.1463 19.1417 15.1951 17.9485 15.1951 16.6852C15.1951 15.4218 15.8537 14.8603 16.0732 14.5796C16.2927 14.2988 16.5854 14.2988 16.8049 14.2988C16.9512 14.2988 17.1707 14.2988 17.3171 14.2988C17.4634 14.2988 17.6829 14.2287 17.9024 14.72C18.122 15.2113 18.6341 16.4746 18.7073 16.5448C18.7805 16.6852 18.7805 16.8255 18.7073 16.9659C18.6341 17.1063 18.561 17.2467 18.4146 17.387C18.2683 17.5274 18.1219 17.738 18.0488 17.8081C17.9024 17.9485 17.7561 18.0889 17.9024 18.2994C18.0488 18.5802 18.561 19.3522 19.3659 20.0541C20.3902 20.8963 21.1951 21.1771 21.4878 21.3174C21.7805 21.4578 21.9268 21.3876 22.0732 21.2473C22.2195 21.1069 22.7317 20.5454 22.878 20.2647C23.0244 19.9839 23.2439 20.0541 23.4634 20.1243C23.6829 20.1945 25 20.8261 25.2195 20.9665C25.5122 21.1069 25.6585 21.1771 25.7317 21.2473C25.8049 21.4578 25.8049 21.9491 25.5854 22.5106Z" fill="black"/>
</svg>
